<?xml version="1.0" encoding="utf-8"?>
<!-- Generator: Adobe Illustrator 24.0.2, SVG Export Plug-In . SVG Version: 6.00 Build 0)  -->
<svg version="1.1" id="Calque_1" xmlns="http://www.w3.org/2000/svg" xmlns:xlink="http://www.w3.org/1999/xlink" x="0px" y="0px"
	 viewBox="0 0 344 156" style="enable-background:new 0 0 344 156;" xml:space="preserve">
<style type="text/css">
	.st0{fill:#AFB7BF;}
	.st1{fill:#B2B9C1;}
</style>
<g>
	<path class="st0" d="M161,22.1c6.8,3.2,13,7.1,16.2,14.5c3.9,9.2,3.1,17.9-3.1,25.6c-6.8,8.5-15.9,11.8-26.6,8.5
		c-9.9-3.1-15.9-9.8-17.5-20.2c-2-12.3,5.3-23,15.5-27.1c0.9-0.4,2-0.3,2.5-1.4C152.4,22.1,156.7,22.1,161,22.1z M154.4,65.1
		c10.7,0,18.7-7.8,18.7-18.4c0-9.9-8.4-18.5-18.3-18.6C145,28,136.1,36.7,136,46.4C135.9,57,143.8,65.1,154.4,65.1z"/>
	<path class="st0" d="M235.9,100c-6.2,6-12.3,12.1-18.5,18.1c-5,4.9-7.1,4.9-12,0c-5.2-5.1-10.3-10.4-15.5-15.5
		c-2.8-2.7-4.2-5.8-4-9.8c0.2-4.8,0-9.6,0.1-14.4c0.1-4.2,2.3-6.4,6.5-6.5c5.3,0,10.6,0,15.9,0c2.4,0,4.7,0.7,6.4,2.3
		c7.1,7.1,14.7,13.9,21.2,21.7C235.9,97.3,235.9,98.6,235.9,100z M202.5,78c-3.1,0-5.3,0-7.4,0c-1.1,0-2.3-0.1-2.9,1.2
		c-1.6,3.4,0.4,17.4,3.2,20.4c4.4,4.5,9,8.8,13.3,13.4c2.2,2.3,3.7,2,5.7-0.1c4.1-4.3,8.3-8.6,12.7-12.7c2.3-2.1,2-3.7-0.1-5.7
		c-3.6-3.4-7.3-6.8-10.5-10.6C212.4,79.4,207.8,76.7,202.5,78z"/>
	<path class="st1" d="M154.7,121.9c-11,0-22,0-32.9,0c-7.2,0-10.5-3.6-10.8-10.7c-0.6-10.9,0.8-21,10.5-28c6.2-4.4,13-6.8,20.6-4.3
		c8.4,2.7,16.6,2.9,24.9-0.1c3.1-1.1,6.2-0.9,9.4-0.5c3.4,0.5,3.8,2.7,3.5,5.4c-0.5,3.5-2.9,1.3-4.2,1.1c-5.8-1-11.1,1.6-16.7,2.4
		c-5.3,0.8-10.2,0-15.2-1.2c-15.7-3.9-26.2,4.1-26.7,20.3c-0.3,8.5,0,8.8,8.3,8.8c19.8,0,39.6,0,59.4,0c1.7,0,3.5,0.4,4.9-0.2
		c3.3-1.4,5.2,0.6,5.8,2.8c0.6,2.5-2.3,3.3-4.3,3.9c-1.4,0.4-3,0.3-4.4,0.3C176,121.9,165.4,121.9,154.7,121.9z"/>
	<path class="st1" d="M201.4,84.1c1.7,0.4,3.2,1.3,3.1,3.2c-0.1,1.6-1.1,2.7-2.9,2.7c-1.9,0-3.4-0.6-3.4-2.7
		C198.3,85.5,199.6,84.6,201.4,84.1z"/>
</g>
</svg>
