<?xml version="1.0" encoding="utf-8"?>
<!-- Generator: Adobe Illustrator 24.0.2, SVG Export Plug-In . SVG Version: 6.00 Build 0)  -->
<svg version="1.1" id="Calque_1" xmlns="http://www.w3.org/2000/svg" xmlns:xlink="http://www.w3.org/1999/xlink" x="0px" y="0px"
	 viewBox="0 0 344 156" style="enable-background:new 0 0 344 156;" xml:space="preserve">
<style type="text/css">
	.st0{fill:#ACB4BC;}
</style>
<g>
	<path class="st0" d="M251.5,72c-6-10.1-13.6-18.8-23-25.9c-18.5-14.1-39.6-19.7-62.4-16.8c-30.1,3.9-51.8,20.8-66.6,47
		c-2,3.5-1.7,6.9,0.4,10.4c5.4,8.8,11.3,17,19.1,24.1c37.4,33.9,94.9,29,125.7-10.9c3.2-4.2,6.2-8.6,9.2-12.8c0-4,0-8,0-12
		C252.5,74.5,252.1,73.1,251.5,72z M177.2,37.4c19.3,0,34.6,14.9,34.5,35.2c-0.2,21.6-18,34.8-34.7,34.4c-19.6,0-35-15.2-34.9-34.6
		C142,54.7,154.7,37.5,177.2,37.4z M245.5,83.1c-13.4,23.4-33.3,37.3-60.2,41c-30.3,4.1-61.7-13.3-76.5-39.6
		c-1.5-2.7-1.5-4.7,0.1-7.3c6.7-11.1,15.3-20.5,26.4-27.4c1.2-0.8,2.5-2.6,3.9-1.5c1.6,1.2-0.3,2.7-0.9,3.9
		c-8.7,17.8-6.7,36.1,7.1,50.2c21,21.5,54.1,16.6,68.8-8c8.7-14.5,8.1-29.4,0.1-44.1c-0.4-0.7-1-1.4-0.1-3
		c14,7.6,24.3,18.5,31.9,32.1C246.8,81,246.2,81.9,245.5,83.1z"/>
	<path class="st0" d="M194,72.5c0,8.9-7.2,17.1-16,17.3c-9.6,0.3-17.2-5.9-18.4-14.7c-0.4-2.7,0.4-3,2.7-3.1
		c10.2-0.4,14-4.4,14-14.9c0-3.1,2-2.1,3.3-1.9C187.9,56.3,194.1,63.8,194,72.5z"/>
</g>
</svg>
