<svg id="Calque_1" data-name="Calque 1" xmlns="http://www.w3.org/2000/svg" viewBox="0 0 124.89 87.79"><defs><style>.cls-1{fill:#acb4bc;}.cls-2{fill:#aeb5bd;}.cls-3{fill:#adb4bc;}.cls-4{fill:#aeb6bd;}</style></defs><title>ordinateur-goupil</title><path class="cls-1" d="M168.76,32.29c-.91,2.38-2,4.15-2.22,6-.38,3.44-2.38,3.68-5.17,3.66-12.31-.1-24.63.11-36.94-.13-4-.08-5.51.89-5.42,5.2.28,13.14.24,26.3,0,39.45C119,90.59,120.2,92,124.39,92c12.32-.22,24.64.06,37-.16,3.77-.07,4.83,1.11,4.81,4.81s-1.2,4.49-4.62,4.44c-13.81-.16-27.63,0-41.44-.09-6.26,0-10-3.67-10-9.88q-.12-24.48,0-48.94c0-5.14,3.16-9.58,8.16-9.7C134.94,32.06,151.67,32.29,168.76,32.29Z" transform="translate(-110 -32.12)"/><path class="cls-2" d="M168.45,119.88c-12,0-23.58,0-35.21,0-2.91,0-4.88-1.49-4.86-4.51s1.34-5.22,4.74-5.24c10-.05,20,0,29.95,0,1.38,0,2.57.09,3,1.88C166.67,114.51,167.56,117,168.45,119.88Z" transform="translate(-110 -32.12)"/><path class="cls-3" d="M234.83,43.48c-.07-7.33-4.2-11.31-11.55-11.33-12.8,0-25.6,0-38.4,0-9,0-12.78,3.68-12.79,12.64q0,31.66,0,63.34c0,7.7,4,11.74,11.6,11.76q19.69.06,39.39,0c7.73,0,11.74-3.95,11.77-11.56,0-10.64,0-21.28,0-31.92C234.86,65.42,234.94,54.45,234.83,43.48Zm-9.77,32.65c0,10-.08,19.94,0,29.9,0,2.93-.79,4.15-3.93,4.11q-17.68-.21-35.38,0c-3.11,0-4-1.14-3.95-4.09q.14-29.91,0-59.81c0-3.15.83-4.41,4.19-4.36q17.44.24,34.88,0c3.34-.05,4.26,1.17,4.21,4.35C225,56.19,225.06,66.16,225.06,76.13Z" transform="translate(-110 -32.12)"/><path class="cls-4" d="M203.65,63.45c-3.65-.2-5.86-2.2-6.39-5.71-.45-3,3-6.57,6.07-6.65s6.46,3.36,6.47,6.35S206.73,63.38,203.65,63.45Z" transform="translate(-110 -32.12)"/><path class="cls-1" d="M203.34,73A15.5,15.5,0,1,0,219,88.38,15.59,15.59,0,0,0,203.34,73Zm-.09,21.74a6.58,6.58,0,0,1-6-6.24c-.3-2.94,3.6-6.65,6.49-6.23a6.87,6.87,0,0,1,6.08,6.11C209.79,91.51,206.17,95.16,203.25,94.75Z" transform="translate(-110 -32.12)"/></svg>